<svg width="63" height="48" viewBox="0 0 63 48" fill="none" xmlns="http://www.w3.org/2000/svg">
<path d="M60.5 27.58V39.58C60.5 41.08 59.7 44.18 56.5 44.58C53.3 44.98 23.1667 44.7467 8.5 44.58C6.66667 44.58 3 43.58 3 39.58C3 35.58 3 17.58 3 9.08003C3 7.08003 4.1 3.08003 8.5 3.08003C12.9 3.08003 41 3.08003 54.5 3.08003C56.5 2.7467 60.5 3.28003 60.5 8.08003C60.5 11.0935 60.5 13.4763 60.5 15.08M60.5 15.08C60.5 16.0308 60.5 18.1278 60.5 18.5C60.5 19.1667 59.9 19.08 57.5 19.08C55.1 19.08 21.5 19.08 5 19.08V15.08H60.5ZM25.5 36.08C25.5 36.08 33.7279 36.08 39 36.08" stroke="#A6A6A6" stroke-width="5" stroke-linecap="round" stroke-linejoin="round"/>
<path d="M46 36.08H51.5" stroke="#A6A6A6" stroke-width="5" stroke-linecap="round" stroke-linejoin="round"/>
</svg>
