<svg width="55" height="59" viewBox="0 0 55 59" fill="none" xmlns="http://www.w3.org/2000/svg">
<path d="M35.58 4.52571V20.5257H51.58L38.58 6.02571C37.9134 5.02571 35.98 3.02571 33.58 3.02571C31.18 3.02571 16.58 3.02571 9.58003 3.02571C7.41336 2.85904 3.08003 3.42571 3.08003 7.02571C3.08003 10.6257 3.08003 38.1923 3.08003 51.5256C2.7467 53.0256 3.28003 56.0256 8.08003 56.0256C12.88 56.0256 37.0801 56.0256 48.5801 56.0256C49.5801 55.859 51.58 54.7256 51.58 51.5256C51.58 48.3256 51.58 35.5256 51.58 29.5256" stroke="#A6A6A6" stroke-width="5" stroke-linecap="round" stroke-linejoin="round"/>
<path d="M40.5801 32.5256H14.0801" stroke="#A6A6A6" stroke-width="5" stroke-linecap="round" stroke-linejoin="round"/>
<path d="M14.0801 45.0256H29.0801" stroke="#A6A6A6" stroke-width="5" stroke-linecap="round" stroke-linejoin="round"/>
</svg>
