<svg width="30" height="23" viewBox="0 0 30 23" fill="none" xmlns="http://www.w3.org/2000/svg">
<path d="M7.66699 0C11.901 0.000264008 15.333 5.14889 15.333 11.5C15.333 17.8511 11.901 22.9997 7.66699 23C3.43281 23 0 17.8513 0 11.5C0 5.14873 3.43281 0 7.66699 0ZM7.66699 1.5332C4.27965 1.5332 1.5332 5.99556 1.5332 11.5C1.5332 17.0044 4.27965 21.4668 7.66699 21.4668C11.0542 21.4665 13.7998 17.0043 13.7998 11.5C13.7998 5.99574 11.0542 1.53349 7.66699 1.5332Z" fill="#D9D9D9"/>
<ellipse cx="4.5" cy="12" rx="4.5" ry="7" fill="#D9D9D9"/>
<path d="M21.4668 0C25.7009 0.000105685 29.1338 5.14879 29.1338 11.5C29.1338 17.8512 25.7009 22.9999 21.4668 23C17.2326 23 13.7998 17.8513 13.7998 11.5C13.7998 5.14873 17.2326 0 21.4668 0ZM21.4668 1.5332C18.0795 1.5332 15.333 5.99556 15.333 11.5C15.333 17.0044 18.0795 21.4668 21.4668 21.4668C24.8541 21.4667 27.5996 17.0044 27.5996 11.5C27.5996 5.99563 24.8541 1.53332 21.4668 1.5332Z" fill="#D9D9D9"/>
<ellipse cx="18.5" cy="12" rx="4.5" ry="7" fill="#D9D9D9"/>
</svg>
