<svg width="59" height="58" viewBox="0 0 59 58" fill="none" xmlns="http://www.w3.org/2000/svg">
<path d="M48.5002 31.0189C45.6669 30.6855 40.0002 31.7189 40.0002 38.5189C40.0002 45.3189 40.0002 49.0189 40.0002 50.0189C39.8335 51.5189 40.8002 54.5189 46.0002 54.5189C52.5002 54.5189 56.5 54.5189 56.5 50.0189C56.5 46.4189 56.5 33.1855 56.5 27.0189C56 22.6855 53.4 12.9189 47 8.51885C40.6 4.11885 33.6667 3.01885 31 3.01885C28.1667 2.85219 20.6 3.71885 13 8.51885C5.4 13.3189 3.16667 22.8522 3 27.0189V50.0189C3 51.5189 4.2 54.5189 9 54.5189C15 54.5189 18.5 55.0189 18.5 50.0189C18.5 46.0188 18.5 40.6855 18.5 38.5189C18.3333 36.0189 16.5 31.0189 10.5 31.0189" stroke="#A6A6A6" stroke-width="5" stroke-linecap="round" stroke-linejoin="round"/>
</svg>
