<svg width="62" height="57" viewBox="0 0 62 57" fill="none" xmlns="http://www.w3.org/2000/svg">
<path d="M28.035 15.6637C28.035 15.6637 15.035 27.1637 8.53496 34.6637C5.86468 37.7448 6.03455 40.873 4.5332 44.6637C3.66441 46.8573 3.53337 47.1637 3.0333 49.6637C2.73417 51.1591 4.50816 53.1637 6.0332 53.1637C9.03272 53.1637 9.75074 52.7476 12.5332 52.1637C15.4251 51.5569 17.708 51.9848 20.035 50.1637C31.535 41.1637 49.5334 23.6637 49.5334 23.6637M49.5334 23.6637C49.5334 23.6637 53.2906 20.3158 54.535 17.6637C55.945 14.6586 56.3598 12.2066 55.0334 9.1637C53.8196 6.37917 52.3644 4.76465 49.5334 3.6637C46.7024 2.56275 43.0334 3.1637 43.0334 3.1637C39.4378 3.67735 35.0334 9.1637 35.0334 9.1637C35.0334 9.1637 36.1471 13.3569 38.035 15.6637C40.0481 18.1235 41.3007 19.5427 44.035 21.1637C45.8569 22.2438 49.5334 23.6637 49.5334 23.6637ZM27.035 53.6637H58.535" stroke="#A6A6A6" stroke-width="5" stroke-linecap="round" stroke-linejoin="round"/>
</svg>
