<svg width="66" height="61" viewBox="0 0 66 61" fill="none" xmlns="http://www.w3.org/2000/svg">
<path d="M60.2222 23.0292C62.3888 25.5292 65.4222 32.1292 60.2222 38.5292" stroke="#A6A6A6" stroke-width="5" stroke-linecap="round" stroke-linejoin="round"/>
<path d="M51.2222 48.0292C51.7222 35.5292 52.2222 9.72922 50.2222 6.52922C48.2222 3.32922 46.7222 2.86255 46.2222 3.02922C39.8889 8.19589 26.1222 18.5292 21.7222 18.5292C17.3222 18.5292 10.8889 18.5292 8.22222 18.5292C6.72222 18.6959 3.62222 19.9292 3.22222 23.5292C2.72222 28.0292 3.22222 35.0292 3.22222 36.0292C3.22222 37.0292 2.72228 40.5292 8.22222 40.5292C12.6222 40.5292 18.3888 40.5292 20.7222 40.5292C27.8889 42.8626 43.0222 49.6292 46.2222 58.0292" stroke="#A6A6A6" stroke-width="5" stroke-linecap="round" stroke-linejoin="round"/>
<path d="M13.7222 57.5292V41.0292" stroke="#A6A6A6" stroke-width="5" stroke-linecap="round" stroke-linejoin="round"/>
</svg>
