<svg width="65" height="61" viewBox="0 0 65 61" fill="none" xmlns="http://www.w3.org/2000/svg">
<path d="M24.2711 54.8712C20.4378 57.5379 12.8711 61.0712 13.2711 53.8712C13.6711 46.6712 13.9377 39.7045 14.271 37.8712C7.10433 31.5379 -3.49596 22.7245 8.27101 20.3712C13.271 19.3712 22.6042 18.7045 21.7709 17.8712L27.7711 5.87119C29.1044 3.70452 32.7711 0.671189 36.7711 5.87119C40.7711 11.0712 43.1044 15.3712 43.7711 16.8712C44.1044 18.0379 45.4711 20.3712 48.2711 20.3712C51.7711 20.3712 58.2711 20.3712 60.2711 21.3712C62.2711 22.3712 63.2711 24.3712 61.2711 27.8712C59.2711 31.3712 51.7709 36.8712 51.7709 37.8712C51.7709 38.8712 53.2711 55.3712 50.7711 55.8712C48.2711 56.3712 45.2711 56.8712 39.7711 53.8712C35.3711 51.4712 29.2711 46.5379 26.7711 44.3712" stroke="#A6A6A6" stroke-width="5" stroke-linecap="round" stroke-linejoin="round"/>
</svg>
